<?xml version="1.0" encoding="UTF-8" standalone="no"?>
<!DOCTYPE svg PUBLIC "-//W3C//DTD SVG 1.1//EN" "http://www.w3.org/Graphics/SVG/1.1/DTD/svg11.dtd">
<svg width="218.64" height="84.72" viewBox="0.00 0.00 911.00 353.00" xmlns="http://www.w3.org/2000/svg" xmlns:xlink="http://www.w3.org/1999/xlink">
<g stroke-linecap="round" id="Layer_2">
<path d="M280.76,85.81 Q270.32,76.83 207.02,30.76 Q206.13,28.90 205.53,31.82 Q176.78,63.33 43.46,231.28 Q35.95,276.70 32.83,321.32 Q82.59,300.71 114.55,287.28 Q275.60,91.56 278.59,88.57 Q281.58,85.58 274.81,78.97 Q282.64,49.68 261.84,33.89 Q241.05,18.09 215.60,35.59" fill="none" stroke="rgb(128, 27, 0)" stroke-width="25.00" stroke-opacity="1.00" stroke-linejoin="round"/>
<path d="M49.43,302.59 Q41.47,310.28 22.38,330.64" fill="none" stroke="rgb(128, 27, 0)" stroke-width="25.00" stroke-opacity="1.00" stroke-linejoin="round"/>
<path d="M204.92,297.85 Q245.16,185.82 262.79,137.57 Q275.40,103.40 288.01,69.23 Q328.50,212.00 340.87,289.37" fill="none" stroke="rgb(206, 123, 0)" stroke-width="50.00" stroke-opacity="1.00" stroke-linejoin="round"/>
<path d="M243.01,215.55 Q280.00,214.00 313.03,210.11" fill="none" stroke="rgb(206, 123, 0)" stroke-width="50.00" stroke-opacity="1.00" stroke-linejoin="round"/>
<path d="M399.32,289.93 Q393.00,101.00 395.07,96.50 Q397.14,91.99 421.06,89.56 Q460.98,85.50 480.73,95.15 Q496.71,102.96 503.81,116.41 Q510.42,128.93 505.78,140.96 Q503.56,146.71 499.23,151.50 Q494.91,156.29 488.74,160.07 Q482.58,163.85 471.69,167.85 Q460.80,171.86 450.84,173.92 Q440.87,175.99 419.02,178.15 Q456.50,210.50 477.50,231.50 Q498.50,252.50 524.44,281.69" fill="none" stroke="rgb(206, 123, 0)" stroke-width="50.00" stroke-opacity="1.00" stroke-linejoin="round"/>
<path d="M553.74,93.41 Q624.62,85.75 704.10,80.00" fill="none" stroke="rgb(206, 123, 0)" stroke-width="50.00" stroke-opacity="1.00" stroke-linejoin="round"/>
<path d="M626.74,285.74 Q624.62,205.28 623.21,99.22" fill="none" stroke="rgb(206, 123, 0)" stroke-width="50.00" stroke-opacity="1.00" stroke-linejoin="round"/>
<path d="M870.29,109.46 Q795.00,212.44 721.45,293.84" fill="none" stroke="rgb(206, 123, 0)" stroke-width="50.00" stroke-opacity="1.00" stroke-linejoin="round"/>
<path d="M734.42,118.51 Q779.78,172.89 803.85,194.09" fill="none" stroke="rgb(206, 123, 0)" stroke-width="50.00" stroke-opacity="1.00" stroke-linejoin="round"/>
</g>
</svg>
